<svg width="20" height="20" viewBox="0 0 20 20" fill="none" xmlns="http://www.w3.org/2000/svg">
<g id="check/check-tick-circle">
<path id="vector" fill-rule="evenodd" clip-rule="evenodd" d="M1.54175 10.0001C1.54175 5.32867 5.32867 1.54175 10.0001 1.54175C14.6715 1.54175 18.4584 5.32867 18.4584 10.0001C18.4584 14.6715 14.6715 18.4584 10.0001 18.4584C5.32867 18.4584 1.54175 14.6715 1.54175 10.0001ZM13.3866 8.89335C13.7667 8.63381 13.8644 8.1153 13.6049 7.73522C13.3453 7.35515 12.8268 7.25743 12.4467 7.51697L12.3623 7.57461C10.9949 8.50835 9.81623 9.687 8.88412 11.0479L7.67227 9.83739C7.34666 9.51213 6.81903 9.51241 6.49376 9.83802C6.1685 10.1636 6.16878 10.6913 6.49439 11.0165L8.44539 12.9654C8.62905 13.1489 8.88772 13.2363 9.14501 13.2018C9.40231 13.1673 9.62885 13.0149 9.75772 12.7896C10.6335 11.2583 11.8454 9.94576 13.3022 8.95099L13.3866 8.89335Z" fill="#D0D5DD"/>
</g>
</svg>
