<svg width="444" height="40" viewBox="0 0 444 40" fill="none" xmlns="http://www.w3.org/2000/svg">
<rect x="0.5" y="0.5" width="443" height="39" rx="7.5" fill="white"/>
<rect x="0.5" y="0.5" width="443" height="39" rx="7.5" stroke="#E2E4E9"/>
<path d="M29.3333 15.8333C29.3333 17.6743 27.841 19.1667 26 19.1667C24.1591 19.1667 22.6667 17.6743 22.6667 15.8333C22.6667 13.9924 24.1591 12.5 26 12.5C27.841 12.5 29.3333 13.9924 29.3333 15.8333Z" stroke="#868C98" stroke-width="1.5" stroke-linecap="round" stroke-linejoin="round"/>
<path d="M30.1667 22.5H21.8333C20.4526 22.5 19.3333 23.6193 19.3333 25C19.3333 26.3807 20.4526 27.5 21.8333 27.5H30.1667C31.5474 27.5 32.6667 26.3807 32.6667 25C32.6667 23.6193 31.5474 22.5 30.1667 22.5Z" stroke="#868C98" stroke-width="1.5" stroke-linecap="round" stroke-linejoin="round"/>
<path d="M53.3037 19.9072C53.3037 21.0329 53.0986 21.974 52.6885 22.7305C52.2783 23.4824 51.6836 24.0498 50.9043 24.4326C50.1296 24.8109 49.1885 25 48.0811 25H45.3672V15.0059H48.3818C49.3981 15.0059 50.2731 15.1927 51.0068 15.5664C51.7406 15.9355 52.3057 16.4847 52.7021 17.2139C53.1032 17.9385 53.3037 18.8363 53.3037 19.9072ZM52.0801 19.9482C52.0801 19.0505 51.9297 18.3099 51.6289 17.7266C51.3327 17.1432 50.8952 16.7103 50.3164 16.4277C49.7422 16.1406 49.0381 15.9971 48.2041 15.9971H46.5293V24.002H47.9443C49.3206 24.002 50.3529 23.6624 51.041 22.9834C51.7337 22.3044 52.0801 21.2926 52.0801 19.9482ZM56.4893 17.5078V25H55.3545V17.5078H56.4893ZM55.9355 14.7051C56.1224 14.7051 56.2819 14.7666 56.4141 14.8896C56.5508 15.0081 56.6191 15.195 56.6191 15.4502C56.6191 15.7008 56.5508 15.8877 56.4141 16.0107C56.2819 16.1338 56.1224 16.1953 55.9355 16.1953C55.7396 16.1953 55.5755 16.1338 55.4434 16.0107C55.3158 15.8877 55.252 15.7008 55.252 15.4502C55.252 15.195 55.3158 15.0081 55.4434 14.8896C55.5755 14.7666 55.7396 14.7051 55.9355 14.7051ZM60.9873 28.3633C60.0029 28.3633 59.2441 28.1787 58.7109 27.8096C58.1777 27.445 57.9111 26.9323 57.9111 26.2715C57.9111 25.8021 58.0592 25.401 58.3555 25.0684C58.6562 24.7357 59.071 24.5146 59.5996 24.4053C59.4036 24.3141 59.235 24.1774 59.0938 23.9951C58.957 23.8128 58.8887 23.6032 58.8887 23.3662C58.8887 23.0928 58.9639 22.8535 59.1143 22.6484C59.2692 22.4388 59.5039 22.2383 59.8184 22.0469C59.4264 21.8874 59.1074 21.6185 58.8613 21.2402C58.6198 20.8574 58.499 20.4131 58.499 19.9072C58.499 19.3695 58.6107 18.9115 58.834 18.5332C59.0573 18.1504 59.3809 17.8587 59.8047 17.6582C60.2285 17.4577 60.7412 17.3574 61.3428 17.3574C61.4749 17.3574 61.6071 17.3643 61.7393 17.3779C61.876 17.387 62.0059 17.403 62.1289 17.4258C62.252 17.444 62.359 17.4668 62.4502 17.4941H65.0205V18.2256L63.6396 18.3965C63.7764 18.5742 63.8903 18.7884 63.9814 19.0391C64.0726 19.2897 64.1182 19.5677 64.1182 19.873C64.1182 20.6204 63.8652 21.2152 63.3594 21.6572C62.8535 22.0947 62.1585 22.3135 61.2744 22.3135C61.0648 22.3135 60.8506 22.2952 60.6318 22.2588C60.4085 22.3818 60.2376 22.5186 60.1191 22.6689C60.0052 22.8193 59.9482 22.9925 59.9482 23.1885C59.9482 23.3343 59.9915 23.4505 60.0781 23.5371C60.1693 23.6237 60.2992 23.6875 60.4678 23.7285C60.6364 23.765 60.8392 23.7832 61.0762 23.7832H62.3955C63.2113 23.7832 63.8356 23.9541 64.2686 24.2959C64.7061 24.6377 64.9248 25.1367 64.9248 25.793C64.9248 26.6224 64.5876 27.2581 63.9131 27.7002C63.2386 28.1423 62.2633 28.3633 60.9873 28.3633ZM61.0215 27.4746C61.6413 27.4746 62.154 27.4108 62.5596 27.2832C62.9697 27.1602 63.2751 26.9801 63.4756 26.7432C63.6807 26.5107 63.7832 26.2327 63.7832 25.9092C63.7832 25.6084 63.7148 25.3805 63.5781 25.2256C63.4414 25.0752 63.2409 24.9749 62.9766 24.9248C62.7122 24.8701 62.3887 24.8428 62.0059 24.8428H60.707C60.3698 24.8428 60.0758 24.8952 59.8252 25C59.5745 25.1048 59.3809 25.2598 59.2441 25.4648C59.112 25.6699 59.0459 25.9251 59.0459 26.2305C59.0459 26.6361 59.2168 26.9437 59.5586 27.1533C59.9004 27.3675 60.388 27.4746 61.0215 27.4746ZM61.3154 21.4863C61.8577 21.4863 62.2656 21.3496 62.5391 21.0762C62.8125 20.8027 62.9492 20.404 62.9492 19.8799C62.9492 19.3193 62.8102 18.9001 62.5322 18.6221C62.2542 18.3395 61.8441 18.1982 61.3018 18.1982C60.7822 18.1982 60.3812 18.3441 60.0986 18.6357C59.8206 18.9229 59.6816 19.3444 59.6816 19.9004C59.6816 20.4108 59.8229 20.8027 60.1055 21.0762C60.388 21.3496 60.7913 21.4863 61.3154 21.4863ZM67.6318 17.5078V25H66.4971V17.5078H67.6318ZM67.0781 14.7051C67.265 14.7051 67.4245 14.7666 67.5566 14.8896C67.6934 15.0081 67.7617 15.195 67.7617 15.4502C67.7617 15.7008 67.6934 15.8877 67.5566 16.0107C67.4245 16.1338 67.265 16.1953 67.0781 16.1953C66.8822 16.1953 66.7181 16.1338 66.5859 16.0107C66.4583 15.8877 66.3945 15.7008 66.3945 15.4502C66.3945 15.195 66.4583 15.0081 66.5859 14.8896C66.7181 14.7666 66.8822 14.7051 67.0781 14.7051ZM72.458 24.207C72.6449 24.207 72.8363 24.1911 73.0322 24.1592C73.2282 24.1273 73.3877 24.0885 73.5107 24.043V24.9248C73.3786 24.984 73.194 25.0342 72.957 25.0752C72.7246 25.1162 72.4967 25.1367 72.2734 25.1367C71.877 25.1367 71.5169 25.0684 71.1934 24.9316C70.8698 24.7904 70.61 24.5534 70.4141 24.2207C70.2227 23.888 70.127 23.4277 70.127 22.8398V18.3965H69.0605V17.8428L70.1338 17.3984L70.585 15.7715H71.2686V17.5078H73.4629V18.3965H71.2686V22.8057C71.2686 23.2751 71.3757 23.626 71.5898 23.8584C71.8086 24.0908 72.098 24.207 72.458 24.207ZM77.9131 17.3711C78.5511 17.3711 79.098 17.5124 79.5537 17.7949C80.0094 18.0775 80.3581 18.474 80.5996 18.9844C80.8411 19.4902 80.9619 20.0827 80.9619 20.7617V21.4658H75.7871C75.8008 22.3454 76.0195 23.0153 76.4434 23.4756C76.8672 23.9359 77.4642 24.166 78.2344 24.166C78.7083 24.166 79.1276 24.1227 79.4922 24.0361C79.8568 23.9495 80.235 23.8219 80.627 23.6533V24.6514C80.2487 24.82 79.8727 24.943 79.499 25.0205C79.1299 25.098 78.6924 25.1367 78.1865 25.1367C77.4665 25.1367 76.8376 24.9909 76.2998 24.6992C75.7666 24.403 75.3519 23.9701 75.0557 23.4004C74.7594 22.8307 74.6113 22.1335 74.6113 21.3086C74.6113 20.502 74.7458 19.8047 75.0146 19.2168C75.2881 18.6243 75.6709 18.1686 76.1631 17.8496C76.6598 17.5306 77.2432 17.3711 77.9131 17.3711ZM77.8994 18.3008C77.2933 18.3008 76.8102 18.499 76.4502 18.8955C76.0902 19.292 75.876 19.8457 75.8076 20.5566H79.7725C79.7679 20.11 79.6973 19.7181 79.5605 19.3809C79.4284 19.0391 79.2256 18.7747 78.9521 18.5879C78.6787 18.3965 78.3278 18.3008 77.8994 18.3008ZM91.373 22.9492C91.373 23.4277 91.2523 23.8311 91.0107 24.1592C90.7738 24.4827 90.432 24.7266 89.9854 24.8906C89.5433 25.0547 89.0146 25.1367 88.3994 25.1367C87.8753 25.1367 87.4219 25.0957 87.0391 25.0137C86.6562 24.9316 86.3213 24.8154 86.0342 24.665V23.6191C86.3395 23.7695 86.7041 23.9062 87.1279 24.0293C87.5518 24.1523 87.9847 24.2139 88.4268 24.2139C89.0739 24.2139 89.5433 24.109 89.835 23.8994C90.1266 23.6898 90.2725 23.4049 90.2725 23.0449C90.2725 22.8398 90.2132 22.6598 90.0947 22.5049C89.9808 22.3454 89.7871 22.1927 89.5137 22.0469C89.2402 21.8965 88.862 21.7324 88.3789 21.5547C87.9004 21.3724 87.4857 21.1924 87.1348 21.0146C86.7884 20.8324 86.5195 20.6113 86.3281 20.3516C86.1413 20.0918 86.0479 19.7546 86.0479 19.3398C86.0479 18.7064 86.3031 18.221 86.8135 17.8838C87.3285 17.542 88.0029 17.3711 88.8369 17.3711C89.2881 17.3711 89.7096 17.4167 90.1016 17.5078C90.498 17.5944 90.8672 17.7129 91.209 17.8633L90.8262 18.7725C90.5163 18.6403 90.1859 18.5286 89.835 18.4375C89.484 18.3464 89.1263 18.3008 88.7617 18.3008C88.2376 18.3008 87.8343 18.3874 87.5518 18.5605C87.2738 18.7337 87.1348 18.9707 87.1348 19.2715C87.1348 19.5039 87.1986 19.6953 87.3262 19.8457C87.4583 19.9961 87.668 20.1374 87.9551 20.2695C88.2422 20.4017 88.6204 20.5566 89.0898 20.7344C89.5592 20.9076 89.9648 21.0876 90.3066 21.2744C90.6484 21.4567 90.9105 21.68 91.0928 21.9443C91.2796 22.2041 91.373 22.5391 91.373 22.9492ZM96.083 17.3711C96.721 17.3711 97.2679 17.5124 97.7236 17.7949C98.1794 18.0775 98.528 18.474 98.7695 18.9844C99.0111 19.4902 99.1318 20.0827 99.1318 20.7617V21.4658H93.957C93.9707 22.3454 94.1895 23.0153 94.6133 23.4756C95.0371 23.9359 95.6341 24.166 96.4043 24.166C96.8783 24.166 97.2975 24.1227 97.6621 24.0361C98.0267 23.9495 98.4049 23.8219 98.7969 23.6533V24.6514C98.4186 24.82 98.0426 24.943 97.6689 25.0205C97.2998 25.098 96.8623 25.1367 96.3564 25.1367C95.6364 25.1367 95.0075 24.9909 94.4697 24.6992C93.9365 24.403 93.5218 23.9701 93.2256 23.4004C92.9294 22.8307 92.7812 22.1335 92.7812 21.3086C92.7812 20.502 92.9157 19.8047 93.1846 19.2168C93.458 18.6243 93.8408 18.1686 94.333 17.8496C94.8298 17.5306 95.4131 17.3711 96.083 17.3711ZM96.0693 18.3008C95.4632 18.3008 94.9801 18.499 94.6201 18.8955C94.2601 19.292 94.0459 19.8457 93.9775 20.5566H97.9424C97.9378 20.11 97.8672 19.7181 97.7305 19.3809C97.5983 19.0391 97.3955 18.7747 97.1221 18.5879C96.8486 18.3965 96.4977 18.3008 96.0693 18.3008ZM107.246 17.5078V25H106.316L106.152 23.9473H106.091C105.936 24.207 105.735 24.4258 105.489 24.6035C105.243 24.7812 104.965 24.9134 104.655 25C104.35 25.0911 104.024 25.1367 103.678 25.1367C103.085 25.1367 102.589 25.041 102.188 24.8496C101.786 24.6582 101.483 24.362 101.278 23.9609C101.078 23.5599 100.978 23.0449 100.978 22.416V17.5078H102.126V22.334C102.126 22.9583 102.267 23.4255 102.55 23.7354C102.832 24.0407 103.263 24.1934 103.842 24.1934C104.398 24.1934 104.84 24.0885 105.168 23.8789C105.501 23.6693 105.74 23.3617 105.886 22.9561C106.032 22.5459 106.104 22.0446 106.104 21.4521V17.5078H107.246ZM116.83 17.3711C117.719 17.3711 118.391 17.5898 118.847 18.0273C119.302 18.4603 119.53 19.1576 119.53 20.1191V25H118.409V20.1943C118.409 19.57 118.266 19.1029 117.979 18.793C117.696 18.4831 117.261 18.3281 116.673 18.3281C115.843 18.3281 115.26 18.5628 114.923 19.0322C114.586 19.5016 114.417 20.1829 114.417 21.0762V25H113.282V17.5078H114.198L114.369 18.5879H114.431C114.59 18.3236 114.793 18.1025 115.039 17.9248C115.285 17.7425 115.561 17.6058 115.866 17.5146C116.172 17.4189 116.493 17.3711 116.83 17.3711ZM128.328 21.2402C128.328 21.8555 128.248 22.4046 128.089 22.8877C127.929 23.3708 127.699 23.7786 127.398 24.1113C127.098 24.444 126.733 24.6992 126.305 24.877C125.881 25.0501 125.4 25.1367 124.862 25.1367C124.361 25.1367 123.901 25.0501 123.481 24.877C123.067 24.6992 122.707 24.444 122.401 24.1113C122.101 23.7786 121.866 23.3708 121.697 22.8877C121.533 22.4046 121.451 21.8555 121.451 21.2402C121.451 20.4199 121.59 19.7227 121.868 19.1484C122.146 18.5697 122.543 18.1299 123.058 17.8291C123.577 17.5238 124.195 17.3711 124.91 17.3711C125.594 17.3711 126.191 17.5238 126.701 17.8291C127.216 18.1344 127.615 18.5765 127.897 19.1553C128.185 19.7295 128.328 20.4245 128.328 21.2402ZM122.627 21.2402C122.627 21.8418 122.707 22.3636 122.866 22.8057C123.026 23.2477 123.272 23.5895 123.604 23.8311C123.937 24.0726 124.366 24.1934 124.89 24.1934C125.409 24.1934 125.835 24.0726 126.168 23.8311C126.505 23.5895 126.754 23.2477 126.913 22.8057C127.073 22.3636 127.152 21.8418 127.152 21.2402C127.152 20.6432 127.073 20.1283 126.913 19.6953C126.754 19.2578 126.507 18.9206 126.175 18.6836C125.842 18.4466 125.411 18.3281 124.883 18.3281C124.104 18.3281 123.532 18.5856 123.167 19.1006C122.807 19.6156 122.627 20.3288 122.627 21.2402ZM138.425 17.3711C139.25 17.3711 139.872 17.5876 140.291 18.0205C140.71 18.4489 140.92 19.1393 140.92 20.0918V25H139.799V20.1465C139.799 19.5404 139.667 19.0869 139.402 18.7861C139.143 18.4808 138.755 18.3281 138.24 18.3281C137.516 18.3281 136.989 18.5378 136.661 18.957C136.333 19.3763 136.169 19.9938 136.169 20.8096V25H135.041V20.1465C135.041 19.7409 134.982 19.4036 134.863 19.1348C134.749 18.8659 134.576 18.6654 134.344 18.5332C134.116 18.3965 133.826 18.3281 133.476 18.3281C132.979 18.3281 132.58 18.4307 132.279 18.6357C131.979 18.8408 131.76 19.1462 131.623 19.5518C131.491 19.9528 131.425 20.4473 131.425 21.0352V25H130.29V17.5078H131.206L131.377 18.5674H131.438C131.589 18.3076 131.778 18.0889 132.006 17.9111C132.234 17.7334 132.489 17.599 132.771 17.5078C133.054 17.4167 133.355 17.3711 133.674 17.3711C134.243 17.3711 134.72 17.4782 135.103 17.6924C135.49 17.902 135.77 18.2233 135.943 18.6562H136.005C136.251 18.2233 136.588 17.902 137.017 17.6924C137.445 17.4782 137.914 17.3711 138.425 17.3711ZM146.136 17.3711C146.774 17.3711 147.321 17.5124 147.776 17.7949C148.232 18.0775 148.581 18.474 148.822 18.9844C149.064 19.4902 149.185 20.0827 149.185 20.7617V21.4658H144.01C144.023 22.3454 144.242 23.0153 144.666 23.4756C145.09 23.9359 145.687 24.166 146.457 24.166C146.931 24.166 147.35 24.1227 147.715 24.0361C148.079 23.9495 148.458 23.8219 148.85 23.6533V24.6514C148.471 24.82 148.095 24.943 147.722 25.0205C147.353 25.098 146.915 25.1367 146.409 25.1367C145.689 25.1367 145.06 24.9909 144.522 24.6992C143.989 24.403 143.575 23.9701 143.278 23.4004C142.982 22.8307 142.834 22.1335 142.834 21.3086C142.834 20.502 142.968 19.8047 143.237 19.2168C143.511 18.6243 143.894 18.1686 144.386 17.8496C144.882 17.5306 145.466 17.3711 146.136 17.3711ZM146.122 18.3008C145.516 18.3008 145.033 18.499 144.673 18.8955C144.313 19.292 144.099 19.8457 144.03 20.5566H147.995C147.991 20.11 147.92 19.7181 147.783 19.3809C147.651 19.0391 147.448 18.7747 147.175 18.5879C146.901 18.3965 146.55 18.3008 146.122 18.3008ZM157.75 25.1367C157.076 25.1367 156.481 24.9977 155.966 24.7197C155.451 24.4417 155.05 24.0179 154.763 23.4482C154.476 22.8786 154.332 22.1608 154.332 21.2949C154.332 20.388 154.482 19.6475 154.783 19.0732C155.089 18.4945 155.508 18.0661 156.041 17.7881C156.574 17.5101 157.18 17.3711 157.859 17.3711C158.233 17.3711 158.593 17.4098 158.939 17.4873C159.29 17.5602 159.577 17.6536 159.801 17.7676L159.459 18.7178C159.231 18.6266 158.967 18.5446 158.666 18.4717C158.37 18.3988 158.092 18.3623 157.832 18.3623C157.312 18.3623 156.88 18.474 156.533 18.6973C156.191 18.9206 155.934 19.2487 155.761 19.6816C155.592 20.1146 155.508 20.6478 155.508 21.2812C155.508 21.8874 155.59 22.4046 155.754 22.833C155.923 23.2614 156.171 23.5895 156.499 23.8174C156.832 24.0407 157.246 24.1523 157.743 24.1523C158.14 24.1523 158.497 24.1113 158.816 24.0293C159.135 23.9427 159.425 23.8424 159.685 23.7285V24.7402C159.434 24.8678 159.154 24.9658 158.844 25.0342C158.538 25.1025 158.174 25.1367 157.75 25.1367ZM167.922 21.2402C167.922 21.8555 167.842 22.4046 167.683 22.8877C167.523 23.3708 167.293 23.7786 166.992 24.1113C166.691 24.444 166.327 24.6992 165.898 24.877C165.475 25.0501 164.994 25.1367 164.456 25.1367C163.955 25.1367 163.494 25.0501 163.075 24.877C162.66 24.6992 162.3 24.444 161.995 24.1113C161.694 23.7786 161.46 23.3708 161.291 22.8877C161.127 22.4046 161.045 21.8555 161.045 21.2402C161.045 20.4199 161.184 19.7227 161.462 19.1484C161.74 18.5697 162.136 18.1299 162.651 17.8291C163.171 17.5238 163.788 17.3711 164.504 17.3711C165.188 17.3711 165.785 17.5238 166.295 17.8291C166.81 18.1344 167.209 18.5765 167.491 19.1553C167.778 19.7295 167.922 20.4245 167.922 21.2402ZM162.221 21.2402C162.221 21.8418 162.3 22.3636 162.46 22.8057C162.619 23.2477 162.866 23.5895 163.198 23.8311C163.531 24.0726 163.959 24.1934 164.483 24.1934C165.003 24.1934 165.429 24.0726 165.762 23.8311C166.099 23.5895 166.347 23.2477 166.507 22.8057C166.666 22.3636 166.746 21.8418 166.746 21.2402C166.746 20.6432 166.666 20.1283 166.507 19.6953C166.347 19.2578 166.101 18.9206 165.769 18.6836C165.436 18.4466 165.005 18.3281 164.477 18.3281C163.697 18.3281 163.125 18.5856 162.761 19.1006C162.401 19.6156 162.221 20.3288 162.221 21.2402ZM178.019 17.3711C178.843 17.3711 179.465 17.5876 179.885 18.0205C180.304 18.4489 180.514 19.1393 180.514 20.0918V25H179.393V20.1465C179.393 19.5404 179.26 19.0869 178.996 18.7861C178.736 18.4808 178.349 18.3281 177.834 18.3281C177.109 18.3281 176.583 18.5378 176.255 18.957C175.927 19.3763 175.763 19.9938 175.763 20.8096V25H174.635V20.1465C174.635 19.7409 174.576 19.4036 174.457 19.1348C174.343 18.8659 174.17 18.6654 173.938 18.5332C173.71 18.3965 173.42 18.3281 173.069 18.3281C172.573 18.3281 172.174 18.4307 171.873 18.6357C171.572 18.8408 171.354 19.1462 171.217 19.5518C171.085 19.9528 171.019 20.4473 171.019 21.0352V25H169.884V17.5078H170.8L170.971 18.5674H171.032C171.183 18.3076 171.372 18.0889 171.6 17.9111C171.827 17.7334 172.083 17.599 172.365 17.5078C172.648 17.4167 172.949 17.3711 173.268 17.3711C173.837 17.3711 174.313 17.4782 174.696 17.6924C175.084 17.902 175.364 18.2233 175.537 18.6562H175.599C175.845 18.2233 176.182 17.902 176.61 17.6924C177.039 17.4782 177.508 17.3711 178.019 17.3711ZM186.365 17.3711C187.299 17.3711 188.045 17.6924 188.601 18.335C189.157 18.9775 189.435 19.9437 189.435 21.2334C189.435 22.0856 189.307 22.8011 189.052 23.3799C188.797 23.9587 188.437 24.3962 187.972 24.6924C187.511 24.9886 186.967 25.1367 186.338 25.1367C185.941 25.1367 185.593 25.0843 185.292 24.9795C184.991 24.8747 184.734 24.7334 184.52 24.5557C184.305 24.3779 184.128 24.1842 183.986 23.9746H183.904C183.918 24.1523 183.934 24.3665 183.952 24.6172C183.975 24.8678 183.986 25.0866 183.986 25.2734V28.3496H182.845V17.5078H183.781L183.932 18.6152H183.986C184.132 18.3874 184.31 18.18 184.52 17.9932C184.729 17.8018 184.984 17.6514 185.285 17.542C185.59 17.4281 185.951 17.3711 186.365 17.3711ZM186.167 18.3281C185.647 18.3281 185.228 18.4284 184.909 18.6289C184.595 18.8294 184.365 19.1302 184.219 19.5312C184.073 19.9277 183.995 20.4268 183.986 21.0283V21.2471C183.986 21.8805 184.055 22.416 184.191 22.8535C184.333 23.291 184.563 23.6237 184.882 23.8516C185.205 24.0794 185.638 24.1934 186.181 24.1934C186.646 24.1934 187.033 24.068 187.343 23.8174C187.653 23.5667 187.883 23.2181 188.033 22.7715C188.188 22.3203 188.266 21.8031 188.266 21.2197C188.266 20.3356 188.092 19.6338 187.746 19.1143C187.404 18.5902 186.878 18.3281 186.167 18.3281ZM192.559 25H191.417V14.3633H192.559V25ZM197.843 17.3711C198.481 17.3711 199.028 17.5124 199.483 17.7949C199.939 18.0775 200.288 18.474 200.529 18.9844C200.771 19.4902 200.892 20.0827 200.892 20.7617V21.4658H195.717C195.73 22.3454 195.949 23.0153 196.373 23.4756C196.797 23.9359 197.394 24.166 198.164 24.166C198.638 24.166 199.057 24.1227 199.422 24.0361C199.786 23.9495 200.165 23.8219 200.557 23.6533V24.6514C200.178 24.82 199.802 24.943 199.429 25.0205C199.06 25.098 198.622 25.1367 198.116 25.1367C197.396 25.1367 196.767 24.9909 196.229 24.6992C195.696 24.403 195.282 23.9701 194.985 23.4004C194.689 22.8307 194.541 22.1335 194.541 21.3086C194.541 20.502 194.675 19.8047 194.944 19.2168C195.218 18.6243 195.601 18.1686 196.093 17.8496C196.59 17.5306 197.173 17.3711 197.843 17.3711ZM197.829 18.3008C197.223 18.3008 196.74 18.499 196.38 18.8955C196.02 19.292 195.806 19.8457 195.737 20.5566H199.702C199.698 20.11 199.627 19.7181 199.49 19.3809C199.358 19.0391 199.155 18.7747 198.882 18.5879C198.608 18.3965 198.257 18.3008 197.829 18.3008ZM205.239 24.207C205.426 24.207 205.618 24.1911 205.813 24.1592C206.009 24.1273 206.169 24.0885 206.292 24.043V24.9248C206.16 24.984 205.975 25.0342 205.738 25.0752C205.506 25.1162 205.278 25.1367 205.055 25.1367C204.658 25.1367 204.298 25.0684 203.975 24.9316C203.651 24.7904 203.391 24.5534 203.195 24.2207C203.004 23.888 202.908 23.4277 202.908 22.8398V18.3965H201.842V17.8428L202.915 17.3984L203.366 15.7715H204.05V17.5078H206.244V18.3965H204.05V22.8057C204.05 23.2751 204.157 23.626 204.371 23.8584C204.59 24.0908 204.879 24.207 205.239 24.207ZM214.27 21.2402C214.27 21.8555 214.19 22.4046 214.03 22.8877C213.871 23.3708 213.641 23.7786 213.34 24.1113C213.039 24.444 212.674 24.6992 212.246 24.877C211.822 25.0501 211.341 25.1367 210.804 25.1367C210.302 25.1367 209.842 25.0501 209.423 24.877C209.008 24.6992 208.648 24.444 208.343 24.1113C208.042 23.7786 207.807 23.3708 207.639 22.8877C207.475 22.4046 207.393 21.8555 207.393 21.2402C207.393 20.4199 207.532 19.7227 207.81 19.1484C208.088 18.5697 208.484 18.1299 208.999 17.8291C209.519 17.5238 210.136 17.3711 210.852 17.3711C211.535 17.3711 212.132 17.5238 212.643 17.8291C213.158 18.1344 213.556 18.5765 213.839 19.1553C214.126 19.7295 214.27 20.4245 214.27 21.2402ZM208.568 21.2402C208.568 21.8418 208.648 22.3636 208.808 22.8057C208.967 23.2477 209.213 23.5895 209.546 23.8311C209.879 24.0726 210.307 24.1934 210.831 24.1934C211.351 24.1934 211.777 24.0726 212.109 23.8311C212.447 23.5895 212.695 23.2477 212.854 22.8057C213.014 22.3636 213.094 21.8418 213.094 21.2402C213.094 20.6432 213.014 20.1283 212.854 19.6953C212.695 19.2578 212.449 18.9206 212.116 18.6836C211.784 18.4466 211.353 18.3281 210.824 18.3281C210.045 18.3281 209.473 18.5856 209.108 19.1006C208.748 19.6156 208.568 20.3288 208.568 21.2402Z" fill="#868C98"/>
</svg>
