<svg width="20" height="20" viewBox="0 0 20 20" fill="none" xmlns="http://www.w3.org/2000/svg">
<path d="M9.80469 16.6667H8.33333C5.99978 16.6667 4.833 16.6667 3.9417 16.2125C3.1577 15.813 2.52028 15.1756 2.1208 14.3916C1.66666 13.5003 1.66666 12.3335 1.66666 10C1.66666 8.33829 1.66666 7.26823 1.83065 6.46798M18.1694 6.46798L13.5792 9.38901C12.2821 10.2144 11.6335 10.6272 10.9365 10.7879C10.3202 10.9301 9.67975 10.9301 9.06352 10.7879C8.3665 10.6272 7.71794 10.2144 6.42082 9.38901L1.83065 6.46798M18.1694 6.46798C18.3333 7.26823 18.3333 8.33829 18.3333 10L18.3333 10.293M18.1694 6.46798C18.103 6.14443 18.0099 5.86498 17.8792 5.60837C17.4797 4.82436 16.8423 4.18694 16.0583 3.78747C15.167 3.33333 14.0002 3.33333 11.6667 3.33333H8.33333C5.99978 3.33333 4.833 3.33333 3.9417 3.78747C3.1577 4.18694 2.52028 4.82436 2.1208 5.60837C1.99005 5.86498 1.89695 6.14443 1.83065 6.46798M12.5 18.3333H12.5008M15.8333 12.5C15.3021 13.847 14.7174 14.4541 13.3333 15C14.7174 15.5459 15.3021 16.1529 15.8333 17.5C16.3646 16.1529 16.9493 15.5459 18.3333 15C16.9493 14.4541 16.3646 13.847 15.8333 12.5Z" stroke="#868C98" stroke-width="1.5" stroke-linecap="round" stroke-linejoin="round"/>
</svg>
