<svg width="20" height="20" viewBox="0 0 20 20" fill="none" xmlns="http://www.w3.org/2000/svg">
<g id="eye/eye-off">
<path id="vector" d="M16.7315 7.98201C17.2322 8.76055 17.5 9.49502 17.5 9.99999C17.5 11.6667 14.5833 15.8333 9.99996 15.8333C9.64078 15.8333 9.29183 15.8077 8.95373 15.7598M14.4107 5.58926C13.2228 4.76039 11.7301 4.16666 9.99996 4.16666C5.41663 4.16666 2.49996 8.33332 2.49996 9.99999C2.49996 11.0375 3.63023 13.0438 5.58923 14.4107M14.4107 5.58926L18.3333 1.66666M14.4107 5.58926L11.7677 8.23222M5.58923 14.4107L1.66663 18.3333M5.58923 14.4107L8.23219 11.7678M8.23219 11.7678C7.77978 11.3153 7.49996 10.6903 7.49996 9.99999C7.49996 8.61928 8.61925 7.49999 9.99996 7.49999C10.6903 7.49999 11.3153 7.77981 11.7677 8.23222M8.23219 11.7678L11.7677 8.23222" stroke="#868C98" stroke-width="1.5" stroke-linecap="round" stroke-linejoin="round"/>
</g>
</svg>
