<svg width="20" height="20" viewBox="0 0 20 20" fill="none" xmlns="http://www.w3.org/2000/svg">
<g id="lock/lock-close">
<path id="vector" d="M10 14.1667V12.5M10 12.5C10.4275 12.5 10.7741 12.1269 10.7741 11.6667C10.7741 11.2064 10.4275 10.8333 10 10.8333C9.57255 10.8333 9.22601 11.2064 9.22601 11.6667C9.22601 12.1269 9.57255 12.5 10 12.5ZM14.6442 7.69887V7.5C14.6442 4.73858 12.565 2.5 10 2.5C7.43512 2.5 5.35584 4.73858 5.35584 7.5V7.69887M14.6442 7.69887C14.0726 7.5 13.3045 7.5 11.919 7.5H8.08105C6.69557 7.5 5.92749 7.5 5.35584 7.69887M14.6442 7.69887C14.714 7.72313 14.7808 7.75036 14.8455 7.78091C15.6384 8.15546 16.2493 8.87034 16.5302 9.75211C16.7408 10.4134 16.6763 11.2474 16.5472 12.9152C16.4361 14.3507 16.3805 15.0684 16.1245 15.6317C15.7832 16.3828 15.1921 16.9683 14.4686 17.2721C13.9259 17.5 13.257 17.5 11.919 17.5H8.08105C6.74312 17.5 6.07415 17.5 5.53149 17.2721C4.80795 16.9683 4.21691 16.3828 3.87556 15.6317C3.61956 15.0684 3.564 14.3507 3.45289 12.9152C3.3238 11.2474 3.25925 10.4134 3.46989 9.75211C3.75074 8.87034 4.36171 8.15546 5.15458 7.78091C5.21925 7.75036 5.28608 7.72313 5.35584 7.69887" stroke="#868C98" stroke-width="1.5" stroke-linecap="round" stroke-linejoin="round"/>
</g>
</svg>
