<svg width="202" height="41" viewBox="0 0 202 41" fill="none" xmlns="http://www.w3.org/2000/svg">
<g id="Logo Intra" clip-path="url(#clip0_4101_1323)">
<path id="Vector" d="M29.392 40.9495C29.392 40.9775 29.3691 40.9972 29.3433 40.9972H28.6732C28.6446 40.9972 28.6245 40.9747 28.6245 40.9495V0.0477299C28.6245 0.0196535 28.6474 0 28.6732 0H29.3433C29.3719 0 29.392 0.0224611 29.392 0.0477299V40.9495Z" fill="white"/>
<path id="Vector_2" d="M99.8857 15.0855C102.325 15.6077 103.391 17.4916 103.886 19.7237C104.45 22.2787 105.146 24.7634 105.974 27.178C105.985 27.2145 105.974 27.2341 105.931 27.2341H102.537C102.494 27.2341 102.469 27.2145 102.46 27.1752C101.879 24.9965 101.363 22.8065 100.914 20.6081C100.762 19.8669 100.519 19.2324 100.183 18.7073C98.829 16.5876 96.0284 16.7981 93.8692 16.8066C93.8205 16.8066 93.7976 16.829 93.7976 16.8767V27.1752C93.7976 27.2173 93.7776 27.2369 93.7346 27.2369H90.8309C90.7851 27.2369 90.7622 27.2145 90.7622 27.1696V2.36966C90.7622 2.32755 90.7823 2.30509 90.8252 2.29947C92.3973 2.07486 93.9437 1.93448 95.4643 1.88113C97.1051 1.82217 98.7889 1.92886 100.344 2.37809C103.6 3.32145 105.533 5.62934 105.47 9.09397C105.415 12.188 102.795 14.4229 99.8857 15.0265C99.7912 15.0462 99.7912 15.0658 99.8857 15.0855ZM101.864 7.33919C100.679 4.23955 96.6756 4.27325 93.8578 4.6607C93.8205 4.66632 93.8005 4.68878 93.8005 4.72528V14.3302C93.8005 14.3302 93.8119 14.3555 93.8263 14.3555C95.8365 14.4453 97.8496 14.2909 99.5879 13.3588C101.011 12.5951 101.999 11.326 102.157 9.74253C102.242 8.86936 102.145 8.06637 101.867 7.33919H101.864Z" fill="white"/>
<path id="Vector_3" d="M200.857 17.3933C199.9 21.9951 196.567 25.3446 192.022 26.74C190.318 27.265 188.574 27.543 186.788 27.5851C184.817 27.6272 182.864 27.4784 180.929 27.1359C180.886 27.1274 180.863 27.1022 180.863 27.0601V2.37246C180.863 2.33315 180.88 2.31069 180.923 2.30507C183.191 2.0215 185.284 1.8755 187.2 1.86708C190.92 1.85304 194.786 2.7178 197.529 5.1436C200.957 8.17304 201.739 13.1454 200.857 17.3933ZM197.629 11.8567C196.882 8.04389 194.388 5.67986 190.642 4.85441C188.5 4.38273 186.115 4.37711 183.967 4.69999C183.924 4.70561 183.904 4.73088 183.904 4.77018V24.7353C183.904 24.7746 183.924 24.7943 183.961 24.7999C187.286 25.2884 190.917 24.828 193.695 22.9553C197.437 20.4312 198.445 16.0288 197.626 11.8567H197.629Z" fill="white"/>
<path id="Vector_4" d="M42.5275 27.192C42.5275 27.2145 42.5103 27.2341 42.4845 27.2341H39.5293C39.5064 27.2341 39.4863 27.2173 39.4863 27.192V2.26859C39.4863 2.24612 39.5035 2.22647 39.5293 2.22647H42.4845C42.5074 2.22647 42.5275 2.24332 42.5275 2.26859V27.192Z" fill="white"/>
<path id="Vector_5" d="M50.5171 6.2414C50.4541 6.11506 50.4255 6.12348 50.4283 6.26386C50.4799 7.83052 50.5257 9.38596 50.5285 10.9667C50.5285 16.3686 50.5285 21.7705 50.5285 27.1724C50.5285 27.2145 50.5056 27.2369 50.4627 27.2369H47.685C47.6592 27.2369 47.6392 27.2173 47.6392 27.192V2.28824C47.6392 2.25455 47.6678 2.22647 47.7022 2.22647H51.1786C51.2129 2.22647 51.2416 2.24051 51.2616 2.27139C54.2426 6.99665 57.2666 11.8005 60.3364 16.6774C61.8513 19.0864 63.137 21.2539 64.188 23.5646C64.1966 23.5814 64.2223 23.5758 64.2223 23.5561C64.1479 21.7396 64.1107 19.8922 64.1107 18.011C64.1107 12.7636 64.1107 7.51888 64.1107 2.28262C64.1107 2.25455 64.1336 2.22928 64.1651 2.22928H66.9399C66.9771 2.22928 66.9972 2.24612 66.9972 2.28543V27.1752C66.9972 27.2145 66.9771 27.2341 66.937 27.2341H63.4749C63.4263 27.2341 63.389 27.2145 63.3633 27.1752C59.9985 21.807 56.6309 16.45 53.2719 11.1042C52.2639 9.50107 51.3504 7.8951 50.52 6.2414H50.5171Z" fill="white"/>
<path id="Vector_6" d="M111.02 27.2341H107.875C107.852 27.2341 107.832 27.2117 107.841 27.1892L116.455 2.25174C116.46 2.2377 116.472 2.22928 116.489 2.22928H120.366C120.381 2.22928 120.395 2.23489 120.401 2.25174L129.014 27.1892C129.023 27.2117 129.006 27.2369 128.98 27.2369H125.721C125.704 27.2369 125.693 27.2257 125.687 27.2117L122.995 19.0049C122.989 18.9909 122.978 18.9797 122.961 18.9797H113.78C113.763 18.9797 113.751 18.9909 113.746 19.0049L111.057 27.2089C111.051 27.2229 111.04 27.2341 111.022 27.2341M114.619 16.3293C114.61 16.3517 114.631 16.377 114.653 16.377L122.082 16.3658C122.107 16.3658 122.125 16.3405 122.116 16.318L118.382 4.98358C118.37 4.94988 118.322 4.94988 118.31 4.98358L114.616 16.3293H114.619Z" fill="white"/>
<path id="Vector_7" d="M159.626 27.2341H156.485C156.459 27.2341 156.442 27.2117 156.45 27.1864L165.061 2.25455C165.067 2.24051 165.081 2.22928 165.099 2.22928H168.97C168.987 2.22928 169.002 2.2377 169.007 2.25174L177.618 27.1864C177.627 27.2117 177.61 27.2369 177.584 27.2369H174.331C174.314 27.2369 174.299 27.2257 174.296 27.2089L171.605 19.0049C171.599 18.9881 171.585 18.9797 171.57 18.9797H162.392C162.375 18.9797 162.361 18.9909 162.358 19.0049L159.666 27.2089C159.661 27.2257 159.646 27.2341 159.632 27.2341M170.726 16.3096L166.997 4.992C166.966 4.89654 166.937 4.89654 166.908 4.992C166.737 5.55633 166.556 6.1319 166.361 6.7187C165.316 9.89976 164.274 13.092 163.234 16.3012C163.22 16.3489 163.234 16.3714 163.286 16.3714H170.68C170.723 16.3714 170.737 16.3517 170.726 16.3124V16.3096Z" fill="white"/>
<path id="Vector_8" d="M77.2259 4.98919H69.5972C69.5743 4.98919 69.5571 4.96954 69.5571 4.94708V2.40897C69.5571 2.38651 69.5743 2.36966 69.5972 2.36966H87.9845C88.0074 2.36966 88.0246 2.38651 88.0246 2.40897V4.94988C88.0246 4.97234 88.0074 4.98919 87.9845 4.98919H80.3501C80.3272 4.98919 80.31 5.00604 80.31 5.0285V27.1948C80.31 27.2173 80.2928 27.2341 80.2699 27.2341H77.3089C77.286 27.2341 77.2688 27.2173 77.2688 27.1948V5.0285C77.2688 5.00604 77.2517 4.98919 77.2287 4.98919H77.2259Z" fill="white"/>
<path id="Vector_9" d="M143.865 24.623H154.455C154.478 24.623 154.498 24.6427 154.498 24.6651V27.192C154.498 27.2145 154.48 27.2341 154.455 27.2341H140.83C140.807 27.2341 140.787 27.2145 140.787 27.192V2.41177C140.787 2.38931 140.804 2.36966 140.83 2.36966H154.309C154.331 2.36966 154.352 2.38651 154.352 2.41177V4.94427C154.352 4.96673 154.331 4.98638 154.309 4.98638H143.865C143.842 4.98638 143.822 5.00884 143.822 5.0313V13.2717C143.822 13.2942 143.839 13.3138 143.865 13.3138H153.123C153.146 13.3167 153.166 13.3363 153.166 13.3588V15.8885C153.166 15.9109 153.149 15.9306 153.126 15.9306L143.865 15.925C143.842 15.925 143.822 15.9446 143.822 15.9671V24.5809C143.822 24.6034 143.842 24.623 143.865 24.623Z" fill="white"/>
<g id="Group 1">
<path id="Vector_10" d="M16.8037 26.0973C16.7579 26.0973 16.7235 26.1422 16.7407 26.1843C16.9955 26.8525 17.2475 27.5348 17.5024 28.2283C17.7773 28.9807 17.0986 29.8427 16.4114 30.1403C16.1737 30.2441 15.8501 30.2947 15.4435 30.2919C12.2706 30.2778 9.11488 30.2778 5.97349 30.2919C5.55827 30.2919 5.22609 30.2441 4.97696 30.1431C4.28969 29.8623 3.57665 28.9779 3.87733 28.2002C4.14078 27.5123 4.39564 26.8272 4.63905 26.1534C4.65337 26.1169 4.63905 26.0973 4.5961 26.0973H0.0658631C0.0229089 26.0973 0 26.0776 0 26.0355V24.7664C0 24.7131 0.0114544 24.6682 0.0429542 24.6261L3.73701 19.6481C3.7771 19.5948 3.80001 19.5302 3.79715 19.4628C3.78569 16.832 3.78856 14.176 3.80288 11.4947C3.8086 10.6075 3.94319 9.53498 4.20665 8.27996C4.75073 5.69974 5.85609 3.09144 7.87493 1.40404C8.61947 0.780747 9.51292 0.320293 10.5553 0.0198758C10.6125 0.00302991 10.6698 0.00302991 10.7271 0.0170681C15.2602 1.15136 17.0213 6.31461 17.468 10.3745C17.5396 11.0174 17.5711 11.7502 17.5654 12.5728C17.5482 14.906 17.5511 17.2026 17.5711 19.46C17.5711 19.5358 17.5969 19.6088 17.6427 19.6706L21.3053 24.6064C21.3482 24.6625 21.3711 24.7299 21.3711 24.7973L21.3826 26.013C21.3826 26.0692 21.354 26.0973 21.2967 26.0973H16.8037ZM14.2493 9.79328C14.2493 8.76568 13.396 7.93181 12.3479 7.93462L9.02324 7.94023C7.97516 7.94023 7.12467 8.77691 7.12753 9.80451L7.13326 13.0614C7.13326 14.089 7.98661 14.9228 9.03469 14.92L12.3593 14.9144C13.4074 14.9144 14.2579 14.0777 14.2551 13.0501L14.2493 9.79328ZM10.0856 26.0944H11.2798C11.3456 26.0944 11.4 26.0411 11.4 25.9793V20.3247C11.4 19.9176 11.085 19.5863 10.6985 19.5863H10.6698C10.2832 19.5863 9.96823 19.9176 9.96823 20.3247V25.9793C9.96823 26.0439 10.0226 26.0944 10.0885 26.0944H10.0856Z" fill="white"/>
<path id="Vector_11" d="M10.6986 35.0253C11.426 33.818 12.139 32.5602 12.6144 31.2799C12.6287 31.2406 12.6573 31.221 12.7003 31.221H14.4986C14.5445 31.221 14.5817 31.2491 14.5931 31.2912C14.7306 31.8639 14.742 32.3918 14.6246 32.8747C14.4471 33.6215 14.135 34.4301 13.8085 35.1376C12.8778 37.1535 11.8383 39.0964 10.69 40.9607C10.6843 40.9719 10.6671 40.9719 10.6614 40.9607C9.62763 39.2536 8.69409 37.5466 7.86651 35.8339C7.47133 35.0169 7.13342 34.1802 6.84993 33.3267C6.62657 32.6501 6.59793 31.9706 6.76116 31.2912C6.77261 31.2434 6.80125 31.221 6.84993 31.221H8.63968C8.69123 31.221 8.72559 31.2434 8.74277 31.2912C9.24104 32.5602 9.88536 33.804 10.6786 35.0281C10.6843 35.0366 10.6958 35.0366 10.7015 35.0281L10.6986 35.0253Z" fill="white"/>
</g>
<path id="Vector_12" d="M42.5617 39.0992C38.4267 38.7988 38.4667 32.6838 42.6104 32.4479C43.5325 32.3946 44.466 32.5518 45.1991 33.1077C45.2163 33.1218 45.2277 33.1442 45.2277 33.1667L45.2163 33.5569C45.2163 33.5569 45.2105 33.5682 45.2048 33.5626C44.4488 33.0095 43.6155 32.7568 42.6992 32.8045C38.8505 32.9982 38.9106 38.7511 42.9368 38.7427C43.7759 38.7427 44.5118 38.4731 45.1418 37.9397C45.1962 37.8919 45.222 37.906 45.2249 37.9762V38.2176C45.2277 38.2766 45.2077 38.3243 45.1619 38.3636C44.4231 39.015 43.5296 39.1694 42.5674 39.0992H42.5617Z" fill="white"/>
<path id="Vector_13" d="M87.4691 36.3955C87.0654 33.9304 88.9525 32.1166 91.4524 32.4816C94.9804 32.9954 95.2381 38.0801 91.8676 38.9841C89.8402 39.526 87.8099 38.4787 87.4663 36.3955M89.9605 32.9028C88.8608 33.1611 88.0189 34.0988 87.8414 35.2134C87.5264 37.2013 88.858 38.8044 90.9541 38.737C92.469 38.6893 93.6316 37.7572 93.8263 36.2916C94.1413 33.9332 92.2829 32.3581 89.9605 32.9028Z" fill="white"/>
<path id="Vector_14" d="M127.917 32.5321C129.072 32.7792 129.991 33.6412 130.297 34.7586C130.503 35.511 130.48 36.4993 130.154 37.1928C129.596 38.3748 128.631 39.0122 127.267 39.0992C126.085 39.175 125.134 38.8128 124.415 38.0183C123.731 37.2602 123.482 36.1372 123.654 35.1826C123.923 33.6777 124.83 32.7764 126.371 32.4816C126.829 32.3946 127.348 32.4114 127.917 32.5321ZM130.054 35.8283C130.122 31.6337 123.585 31.8527 124.006 36.1203C124.109 37.1563 124.616 37.92 125.532 38.4085C126.494 38.9223 127.946 38.8409 128.831 38.2288C129.627 37.6785 130.034 36.8784 130.051 35.8283H130.054Z" fill="white"/>
<path id="Vector_15" d="M75.1811 37.7235C75.1754 37.7038 75.1811 37.6898 75.2011 37.6814L75.5047 37.5719C75.5333 37.5607 75.5505 37.5719 75.5591 37.6C75.7968 38.3861 76.3552 38.7595 77.2372 38.7174C78.1707 38.6725 78.6461 38.2176 78.669 37.3529C78.6861 36.7212 78.2881 36.2354 77.724 35.9687C77.2944 35.7638 76.8763 35.5672 76.4754 35.3707C75.9142 35.0983 75.6049 34.6969 75.5448 34.1662C75.3386 32.3244 78.0476 31.9313 78.8265 33.2874C78.8494 33.3267 78.8379 33.3548 78.7978 33.3745L78.5601 33.4727C78.5258 33.4868 78.4857 33.4727 78.4657 33.4446C77.9903 32.7147 76.6959 32.6248 76.1404 33.3127C75.6622 33.9051 75.9371 34.6351 76.5986 34.9776C77.807 35.6037 79.2703 35.9743 79.0155 37.7095C78.8179 39.0543 77.2314 39.3575 76.1948 38.9308C75.7109 38.7314 75.3729 38.3299 75.1782 37.7235H75.1811Z" fill="white"/>
<path id="Vector_16" d="M106.46 33.2846C106.483 33.3211 106.478 33.3464 106.437 33.3632L106.194 33.4699C106.151 33.4895 106.117 33.4783 106.091 33.439C105.444 32.4563 103.308 32.7174 103.56 34.1718C103.62 34.52 103.857 34.7979 104.275 35.0057C105.524 35.6234 106.967 36.0501 106.624 37.8245C106.489 38.5208 105.933 38.9532 105.249 39.0571C104.086 39.2312 103.164 38.8409 102.809 37.7179C102.804 37.701 102.809 37.6898 102.826 37.6842L103.136 37.5747C103.164 37.5634 103.182 37.5747 103.19 37.6027C103.445 38.4759 104.104 38.8381 105.163 38.6921C106.002 38.577 106.392 37.906 106.28 37.1198C106.206 36.6032 105.876 36.213 105.292 35.9462C104.828 35.7357 104.393 35.5223 103.986 35.3089C103.525 35.0646 103.259 34.7137 103.19 34.2532C103.007 33.0544 104.049 32.3693 105.172 32.5097C105.733 32.5799 106.165 32.8382 106.466 33.2902L106.46 33.2846Z" fill="white"/>
<path id="Vector_17" d="M56.1554 38.5546C56.6737 38.3299 56.9314 37.9172 56.9286 37.3192C56.9257 35.716 56.9228 34.1269 56.9257 32.549C56.9257 32.5294 56.9372 32.5209 56.9543 32.5209L57.2722 32.5153C57.2951 32.5153 57.3066 32.5266 57.3066 32.549C57.2951 33.8967 57.2951 35.2528 57.3094 36.6201C57.3152 37.1872 57.3008 37.5691 57.2608 37.7712C56.9543 39.4193 54.1938 39.5316 53.5896 38.0801C53.498 37.8583 53.4521 37.5887 53.4521 37.2715C53.4607 35.6936 53.4636 34.1185 53.4579 32.5518C53.4579 32.535 53.4693 32.5237 53.4865 32.5237L53.7843 32.5153C53.8101 32.5153 53.8216 32.5266 53.8216 32.549C53.833 34.0708 53.833 35.6065 53.8187 37.1507C53.8158 37.5101 53.8616 37.7853 53.9504 37.979C54.3227 38.7539 55.4395 38.8662 56.1497 38.5574L56.1554 38.5546Z" fill="white"/>
<path id="Vector_18" d="M66.7278 35.8115L68.7896 38.9617C68.8153 39.001 68.8039 39.0206 68.7552 39.0206H68.4345C68.403 39.0206 68.3772 39.0094 68.36 38.9813L66.3154 35.8255C66.2925 35.7918 66.2524 35.7694 66.2095 35.7694H65.6081C65.5795 35.7694 65.5537 35.7918 65.5537 35.8199V38.9364C65.5537 38.9982 65.5222 39.0262 65.4592 39.0262H65.2845C65.2244 39.0206 65.1929 38.9925 65.1929 38.9336V32.5799C65.1929 32.5434 65.2129 32.5237 65.2501 32.5237C66.0949 32.5069 66.6648 32.5125 66.9569 32.5378C68.1453 32.6473 68.7695 33.5991 68.4517 34.6997C68.234 35.4605 67.5009 35.7834 66.7449 35.7722C66.722 35.7722 66.7106 35.7946 66.722 35.8143M65.5651 32.9336L65.5565 35.3623C65.5565 35.3847 65.5737 35.4016 65.5966 35.4016L66.8738 35.4072C67.5754 35.4072 68.1453 34.8962 68.1453 34.2617V34.0567C68.1453 33.4222 67.5811 32.9028 66.8824 32.9028L65.6052 32.8971C65.5823 32.8971 65.5651 32.914 65.5651 32.9365V32.9336Z" fill="white"/>
<path id="Vector_19" d="M140.993 33.5935V38.9869C140.993 39.0066 140.979 39.0206 140.959 39.0206H140.658C140.638 39.0206 140.624 39.0038 140.624 38.9869V32.5715C140.624 32.5378 140.666 32.5237 140.689 32.549L145.517 38.1053C145.54 38.1306 145.58 38.1166 145.58 38.0829V32.5546C145.58 32.535 145.595 32.5209 145.615 32.5209L145.921 32.5153C145.941 32.5153 145.956 32.5322 145.956 32.549V39.0403C145.956 39.0712 145.915 39.088 145.895 39.0627L141.056 33.5682C141.036 33.5429 140.993 33.5598 140.993 33.5906V33.5935Z" fill="white"/>
<path id="Vector_20" d="M154.306 38.6528H156.09C156.113 38.6528 156.133 38.6697 156.133 38.6949V38.9841C156.133 39.0066 156.116 39.0262 156.093 39.0262H153.934C153.911 39.0262 153.891 39.0066 153.891 38.9841V32.5743C153.891 32.5518 153.908 32.535 153.931 32.5322L154.223 32.5181C154.246 32.5181 154.266 32.535 154.266 32.5602V38.6163C154.266 38.6388 154.283 38.6584 154.309 38.6584L154.306 38.6528Z" fill="white"/>
<path id="Vector_21" d="M162.584 38.9785C162.584 39.0038 162.564 39.0262 162.536 39.0262H162.266C162.241 39.0262 162.218 39.0066 162.218 38.9785V32.5631C162.218 32.5378 162.238 32.5153 162.266 32.5153H162.536C162.561 32.5153 162.584 32.535 162.584 32.5631V38.9785Z" fill="white"/>
<path id="Vector_22" d="M170.15 33.5906L170.156 38.9841C170.156 39.0038 170.139 39.0178 170.122 39.0178L169.821 39.0234C169.801 39.0234 169.787 39.0066 169.787 38.9897V32.5715C169.787 32.5378 169.827 32.5237 169.847 32.549L174.678 38.111C174.701 38.1362 174.741 38.1222 174.741 38.0885V32.5574C174.741 32.5378 174.758 32.5237 174.778 32.5237L175.081 32.5181C175.101 32.5181 175.116 32.535 175.116 32.5518L175.122 39.0431C175.122 39.074 175.079 39.0908 175.059 39.0655L170.219 33.5682C170.196 33.5429 170.156 33.5598 170.156 33.5906H170.15Z" fill="white"/>
<path id="Vector_23" d="M183.841 38.6528H186.57C186.59 38.6528 186.604 38.6697 186.604 38.6865V38.9869C186.604 39.0066 186.587 39.0206 186.57 39.0206H183.46C183.44 39.0206 183.426 39.0038 183.426 38.9869V32.5574C183.426 32.5378 183.443 32.5237 183.463 32.5237H186.564C186.584 32.5209 186.599 32.535 186.599 32.5546L186.607 32.8578C186.607 32.8775 186.593 32.8943 186.573 32.8943H183.841C183.821 32.8943 183.807 32.9084 183.807 32.928V35.2303C183.807 35.25 183.824 35.264 183.841 35.264H186.57C186.59 35.264 186.604 35.2808 186.604 35.2977V35.6262C186.604 35.6458 186.587 35.6599 186.567 35.6599L183.838 35.6543C183.818 35.6543 183.804 35.6711 183.804 35.6879V38.6135C183.804 38.6332 183.821 38.6472 183.838 38.6472L183.841 38.6528Z" fill="white"/>
</g>
<defs>
<clipPath id="clip0_4101_1323">
<rect width="202" height="41" fill="white"/>
</clipPath>
</defs>
</svg>
