<svg width="20" height="20" viewBox="0 0 20 20" fill="none" xmlns="http://www.w3.org/2000/svg">
<g id="multiple-cross/multiple-cross-cancel-circle">
<path id="vector" fill-rule="evenodd" clip-rule="evenodd" d="M1.54138 9.9999C1.54138 5.32849 5.32831 1.54156 9.99971 1.54156C14.6711 1.54156 18.458 5.32849 18.458 9.9999C18.458 14.6713 14.6711 18.4582 9.99971 18.4582C5.32831 18.4582 1.54138 14.6713 1.54138 9.9999ZM8.00568 6.82735C7.68024 6.50191 7.1526 6.50191 6.82717 6.82735C6.50173 7.15279 6.50173 7.68042 6.82717 8.00586L8.82124 9.99994L6.82717 11.994C6.50173 12.3195 6.50173 12.8471 6.82717 13.1725C7.1526 13.498 7.68024 13.498 8.00568 13.1725L9.99976 11.1784L11.9938 13.1725C12.3193 13.498 12.8469 13.498 13.1723 13.1725C13.4978 12.8471 13.4978 12.3195 13.1723 11.994L11.1783 9.99994L13.1723 8.00586C13.4978 7.68042 13.4978 7.15279 13.1723 6.82735C12.8469 6.50191 12.3193 6.50191 11.9938 6.82735L9.99976 8.82143L8.00568 6.82735Z" fill="#FF0000"/>
</g>
</svg>
