<svg width="20" height="20" viewBox="0 0 20 20" fill="none" xmlns="http://www.w3.org/2000/svg">
<path d="M7.25307 10.4058C6.73748 9.53212 6.39846 8.5136 6.26458 7.37882C6.25324 7.28272 6.24757 7.23467 6.25099 7.15818C6.26939 6.74575 6.63324 6.33635 7.04058 6.26974C7.20583 6.24272 7.41016 6.2468 7.57822 6.26196C7.981 6.29829 8.33374 6.54692 8.50341 6.9141C8.52476 6.96031 8.54356 7.01296 8.58116 7.11825C8.65867 7.33534 8.69743 7.44389 8.72334 7.54501C8.9294 8.34945 8.67837 9.20216 8.06933 9.76653C7.99277 9.83748 7.90138 9.9077 7.71861 10.0481L7.25307 10.4058ZM7.25307 10.4058C7.80172 11.3355 8.55031 12.1013 9.46445 12.6686M9.46445 12.6686C10.3661 13.2282 11.4289 13.5949 12.6198 13.7354C12.7159 13.7468 12.7639 13.7524 12.8404 13.749C13.2527 13.7306 13.662 13.3667 13.7286 12.9592C13.7581 12.7789 13.7546 12.5714 13.7331 12.3901C13.6882 12.0107 13.455 11.6796 13.1129 11.5098C13.0531 11.4801 12.9838 11.4553 12.8451 11.4057C12.5695 11.3073 12.4317 11.2581 12.3019 11.2283C11.5797 11.0627 10.8222 11.2613 10.2741 11.7599C10.1756 11.8496 10.0801 11.9595 9.88927 12.1793L9.46445 12.6686ZM10 17.5C14.1421 17.5 17.5 14.1421 17.5 10C17.5 5.85786 14.1421 2.5 10 2.5C5.85786 2.5 2.5 5.85786 2.5 10C2.5 10.9233 2.66684 11.8076 2.97201 12.6245C3.07143 12.8906 3.12114 13.0237 3.13906 13.1213C3.15726 13.2205 3.1613 13.2836 3.15593 13.3843C3.15063 13.4835 3.1249 13.5937 3.07344 13.814L2.78386 15.0539C2.56555 15.9887 2.45639 16.4561 2.58733 16.7844C2.70168 17.0712 2.92884 17.2983 3.21558 17.4127C3.54393 17.5436 4.01132 17.4345 4.94606 17.2161L6.18599 16.9266C6.40633 16.8751 6.51651 16.8494 6.61567 16.8441C6.71636 16.8387 6.77949 16.8427 6.87866 16.8609C6.97634 16.8789 7.10942 16.9286 7.37553 17.028C8.19239 17.3332 9.07671 17.5 10 17.5Z" stroke="#868C98" stroke-width="1.5" stroke-linecap="round" stroke-linejoin="round"/>
</svg>
